# xmcd
#
# Track frame offsets:
#	150
#	12727
#	22572
#	34930
#	47610
#	59530
#	73640
#	86247
#	97200
#	106720
#	119422
#	132370
#
# Disc length: 1898 seconds
#
# Revision: 3
# Processed by: cddbd v1.5.2PL0 Copyright (c) Steve Scherf et al.
# Submitted via: audiograbber 1.83.01
#
DISCID=a307680c
DTITLE=Simon and Garfunkel - Wednesday Morning, 3 A.M.
DYEAR=1964
DGENRE=Rock
TTITLE0=You Can Tell the World
TTITLE1=Last Night I Had the Strangest Dream
TTITLE2=Bleecker Street
TTITLE3=Sparrow
TTITLE4=Benedictus
TTITLE5=The Sound of Silence
TTITLE6=He Was My Brother
TTITLE7=Peggy-O
TTITLE8=Go Tell It On The Mountain
TTITLE9=The Sun Is Burning
TTITLE10=The Times They Are A-Changin'
TTITLE11=Wednesday Morning, 3 A.M.
EXTD=
EXTT0=
EXTT1=
EXTT2=
EXTT3=
EXTT4=
EXTT5=
EXTT6=
EXTT7=
EXTT8=
EXTT9=
EXTT10=
EXTT11=
PLAYORDER=
